<svg xmlns="http://www.w3.org/2000/svg" width="375" viewBox="0 0 375 375" height="375" version="1.0"><defs><clipPath id="a"><path d="M 72.109375 74 L 303.109375 74 L 303.109375 272.277344 L 72.109375 272.277344 Z M 72.109375 74"/></clipPath></defs><path fill="#FFF" d="M 184.339844 10.164062 C 92.175781 10.164062 17.464844 84.875 17.464844 177.039062 C 17.464844 269.199219 92.175781 343.914062 184.339844 343.914062 C 276.503906 343.914062 351.214844 269.199219 351.214844 177.039062 C 351.214844 84.875 276.503906 10.164062 184.339844 10.164062 Z M 184.339844 10.164062"/><g clip-path="url(#a)"><path d="M 281.804688 264.105469 C 270.722656 263.695312 243.382812 253.433594 243.382812 253.433594 C 236.148438 249.324219 222.601562 239.472656 222.601562 239.472656 C 221.5 235.707031 221.519531 222.128906 221.804688 209.734375 C 222.539062 209.171875 222.953125 208.847656 222.953125 208.847656 C 230.515625 201.644531 233.402344 195.074219 233.402344 195.074219 C 236.652344 188.921875 243.390625 137.910156 243.390625 137.910156 C 243.917969 81.003906 204.550781 74.683594 191.671875 74.132812 L 191.613281 74.132812 C 191.425781 74.125 191.242188 74.117188 191.0625 74.113281 L 190.992188 74.109375 C 190.816406 74.105469 190.644531 74.097656 190.480469 74.097656 L 190.449219 74.097656 C 189.773438 74.082031 189.207031 74.085938 188.765625 74.097656 L 188.683594 74.097656 C 188.601562 74.097656 188.527344 74.101562 188.453125 74.101562 L 188.351562 74.105469 C 188.285156 74.105469 188.226562 74.113281 188.171875 74.113281 L 188.070312 74.117188 L 187.945312 74.121094 L 187.851562 74.125 L 187.78125 74.128906 L 187.707031 74.132812 L 187.671875 74.136719 L 187.640625 74.140625 C 187.640625 74.140625 131.265625 69.890625 131.890625 137.910156 C 131.890625 137.910156 138.628906 188.921875 141.878906 195.074219 C 141.878906 195.074219 144.765625 201.644531 152.328125 208.847656 C 152.328125 208.847656 152.742188 209.175781 153.476562 209.75 L 153.476562 209.8125 C 153.484375 210.175781 153.492188 210.542969 153.503906 210.914062 L 153.503906 210.917969 C 153.511719 211.292969 153.515625 211.671875 153.523438 212.050781 L 153.527344 212.128906 C 153.535156 212.488281 153.539062 212.847656 153.546875 213.210938 L 153.546875 213.316406 C 153.554688 213.667969 153.5625 214.027344 153.566406 214.378906 L 153.570312 214.484375 C 153.574219 214.835938 153.578125 215.1875 153.585938 215.539062 L 153.589844 215.671875 C 153.59375 216.019531 153.597656 216.371094 153.601562 216.722656 L 153.601562 216.820312 C 153.609375 217.164062 153.613281 217.511719 153.617188 217.855469 L 153.617188 218.011719 C 153.621094 218.347656 153.621094 218.675781 153.625 219.007812 L 153.625 219.160156 C 153.628906 219.484375 153.632812 219.808594 153.632812 220.128906 C 153.632812 220.195312 153.632812 220.261719 153.636719 220.328125 C 153.636719 220.632812 153.640625 220.933594 153.640625 221.234375 C 153.640625 221.320312 153.640625 221.398438 153.640625 221.484375 C 153.640625 221.769531 153.640625 222.054688 153.640625 222.339844 C 153.640625 222.425781 153.640625 222.515625 153.640625 222.601562 C 153.640625 222.882812 153.640625 223.160156 153.640625 223.433594 C 153.640625 223.53125 153.640625 223.625 153.640625 223.71875 C 153.640625 223.984375 153.636719 224.242188 153.636719 224.503906 C 153.636719 224.605469 153.636719 224.707031 153.632812 224.804688 C 153.632812 225.0625 153.628906 225.308594 153.625 225.558594 C 153.625 225.664062 153.625 225.773438 153.625 225.878906 C 153.621094 226.121094 153.621094 226.363281 153.617188 226.601562 C 153.617188 226.707031 153.613281 226.816406 153.613281 226.925781 C 153.609375 227.152344 153.605469 227.378906 153.601562 227.601562 C 153.597656 227.71875 153.597656 227.839844 153.597656 227.953125 C 153.59375 228.167969 153.589844 228.382812 153.582031 228.589844 C 153.582031 228.710938 153.578125 228.832031 153.578125 228.949219 C 153.570312 229.15625 153.566406 229.363281 153.5625 229.566406 C 153.558594 229.683594 153.554688 229.800781 153.550781 229.917969 C 153.546875 230.105469 153.539062 230.296875 153.535156 230.484375 C 153.53125 230.613281 153.527344 230.738281 153.519531 230.863281 C 153.515625 231.042969 153.511719 231.214844 153.503906 231.394531 C 153.496094 231.515625 153.492188 231.644531 153.488281 231.765625 C 153.484375 231.9375 153.476562 232.101562 153.464844 232.273438 C 153.460938 232.394531 153.453125 232.515625 153.449219 232.636719 C 153.441406 232.800781 153.433594 232.960938 153.425781 233.125 C 153.417969 233.238281 153.410156 233.359375 153.40625 233.476562 C 153.398438 233.625 153.390625 233.773438 153.378906 233.917969 C 153.375 234.039062 153.367188 234.160156 153.359375 234.277344 C 153.347656 234.417969 153.339844 234.554688 153.328125 234.695312 C 153.320312 234.808594 153.3125 234.921875 153.304688 235.035156 C 153.296875 235.167969 153.285156 235.296875 153.273438 235.425781 C 153.265625 235.535156 153.253906 235.648438 153.246094 235.753906 C 153.238281 235.878906 153.222656 236 153.210938 236.121094 C 153.203125 236.226562 153.191406 236.328125 153.183594 236.429688 C 153.171875 236.546875 153.160156 236.65625 153.144531 236.773438 C 153.136719 236.871094 153.125 236.96875 153.113281 237.058594 C 153.101562 237.171875 153.085938 237.277344 153.074219 237.382812 C 153.0625 237.46875 153.050781 237.558594 153.039062 237.644531 C 153.027344 237.75 153.007812 237.847656 152.996094 237.949219 C 152.980469 238.027344 152.972656 238.105469 152.957031 238.175781 C 152.941406 238.28125 152.921875 238.378906 152.90625 238.476562 C 152.894531 238.539062 152.882812 238.601562 152.871094 238.660156 C 152.851562 238.761719 152.832031 238.855469 152.8125 238.945312 L 152.78125 239.09375 C 152.746094 239.230469 152.714844 239.355469 152.679688 239.472656 C 152.679688 239.472656 139.132812 249.324219 131.898438 253.433594 C 131.898438 253.433594 104.558594 263.695312 93.476562 264.105469 C 93.476562 264.105469 79.523438 264.105469 72.136719 272.234375 L 303.144531 272.234375 C 295.757812 264.105469 281.804688 264.105469 281.804688 264.105469"/></g><path d="M 238.539062 171.113281 L 237.792969 175.886719 C 237.792969 175.886719 241.101562 183.800781 246.0625 176.886719 C 251.019531 169.976562 255.035156 157.941406 255.035156 154.390625 C 255.035156 154.390625 254.328125 138.074219 251.253906 133.585938 C 251.253906 133.585938 246.226562 128.363281 243.78125 137.589844 L 238.539062 171.113281"/><path d="M 137.117188 175.886719 L 131.128906 137.589844 C 128.683594 128.363281 123.652344 133.585938 123.652344 133.585938 C 120.582031 138.074219 119.871094 154.390625 119.871094 154.390625 C 119.871094 157.941406 123.886719 169.976562 128.847656 176.886719 C 133.808594 183.800781 137.117188 175.886719 137.117188 175.886719"/></svg>